Simulation
nRows=31
nColumns=15
endheader
time  TH_x TH_y TH_z SC_y  SC_z  SC_x  AC_y  AC_z  AC_x  GH_y  GH_z  GH_yy  EL_x  PS_y
5.382082397003745  0.000000  0.000000  0.000000  -35.93847077924341  8.063649287744195  1.246935587786633  51.88858653414161  15.525572512114733  4.433999304200021  10.632732908536118  80.69138261804196  -13.380500546513478  13.454642762062207  120.000000
5.422247191011236  0.000000  0.000000  0.000000  -35.83102717076542  8.001456135343686  1.7436167948685728  51.99379696908548  15.265646485735576  4.130612913372469  10.565079680129044  80.57104858157288  -13.36083885570072  13.476694630627263  120.000000
5.4624119850187265  0.000000  0.000000  0.000000  -35.615235340224444  7.894242247800748  2.056145331930871  52.11657115012835  14.996192519448034  3.866783802099421  10.50835508340987  80.23181334426592  -13.13427328745541  13.418084637490471  120.000000
5.502576779026217  0.000000  0.000000  0.000000  -35.29095522608307  7.742290192798528  2.169460225248577  52.256058970299904  14.713774733640868  3.648396197344522  10.461781416949618  79.65521851068408  -12.715345886068203  13.294897651175177  120.000000
5.542741573033708  0.000000  0.000000  0.000000  -34.860099016199726  7.545733291666383  2.0731835938944343  52.4111689600514  14.415855517509614  3.4822111216152853  10.421427560609072  78.82182950914088  -12.124754857420212  13.129471438932127  120.000000
5.582906367041199  0.000000  0.000000  0.000000  -34.32724143923692  7.3049342095681  1.7632022514007941  52.57932046053728  14.101965761543665  3.375682311655215  10.38044113485528  77.7135701648998  -11.38615168649874  12.946291818593693  120.000000
5.623071161048689  0.000000  0.000000  0.000000  -33.700107991161204  7.021214433261377  1.2427829348135508  52.755807438576475  13.774758628265902  3.336628056040049  10.329869693072188  76.31622007878649  -10.522977402908484  12.767682150658453  120.000000
5.66323595505618  0.000000  0.000000  0.000000  -32.98920199830489  6.6975250421979355  0.5231829053758041  52.933904991931385  13.440531551002303  3.372290317291192  10.259686925263361  74.62143108404331  -9.555514257374345  12.610468286630987  120.000000
5.70340074906367  0.000000  0.000000  0.000000  -32.20717681342902  6.339019600072812  -0.3764508838603132  53.105746658738326  13.108633841767064  3.488285706985621  10.160173501217578  72.6277993302063  -8.4990973316371  12.48414994412328  120.000000
5.743565543071161  0.000000  0.000000  0.000000  -31.367761725991624  5.953165752732283  -1.4300101703330572  53.2636681414249  12.790173426919432  3.6875129418462307  10.023195494807247  70.34115729305819  -7.3633857262757685  12.391053384271707  120.000000
5.7837303370786515  0.000000  0.000000  0.000000  -30.484727353204683  5.5496971708964  -2.605890979449661  53.40176141280685  12.496376765181537  3.9694664364838737  9.843437948123773  67.77414338252763  -6.152860877920317  12.327691870452448  120.000000
5.823895131086142  0.000000  0.000000  0.000000  -29.571244297419803  5.140056661279674  -3.8690293131763487  53.51698275093001  12.237024879259447  4.330025657733975  9.61910082920104  64.94556447760007  -4.867745030346318  12.28692343544738  120.000000
5.864059925093633  0.000000  0.000000  0.000000  -28.640054450300955  4.73666133012013  -5.182996472101051  53.609579626060565  12.019014646700736  4.761689802867854  9.352070494873592  61.87943589403295  -3.505374899381652  12.260042208321298  120.000000
5.904224719101124  0.000000  0.000000  0.000000  -27.704361953548357  4.35207969594265  -6.512234415242373  53.68257563619699  11.845870974066372  5.254452029776793  9.047399521871398  58.60448465353448  -2.061323072906018  12.238526488014926  120.000000
5.944389513108614  0.000000  0.000000  0.000000  -26.778842990631066  3.9988771947571755  -7.823303462168297  53.740676991583456  11.717823873131069  5.796176705556958  8.71205606842042  55.153945766756216  -0.5302259973838502  12.215376559991226  120.000000
5.984554307116105  0.000000  0.000000  0.000000  -25.880776954741297  3.6893169233348533  -9.084732081884644  53.788594468850384  11.631708491816058  6.372943909870871  8.353105093006498  51.5650290376282  1.0938953007868704  12.185447676067003  120.000000
6.024719101123596  0.000000  0.000000  0.000000  -25.029971098053526  3.434949607239054  -10.268236157169417  53.82923985169795  11.582575685385095  6.969292701274069  7.975282521594248  47.87752308458409  2.8180539331711745  12.145914124873979  120.000000
6.064883895131086  0.000000  0.000000  0.000000  -24.246341258345335  3.246990976434122  -11.348136622102725  53.86540773665255  11.564694624147501  7.567934101615743  7.581295224216439  44.13214987708983  4.6494586344819995  12.096647196342168  120.000000
6.1050486891385765  0.000000  0.000000  0.000000  -23.54611348262318  3.1335646652883318  -12.300496119827516  53.90121255584362  11.574092470926576  8.152026217835521  7.175125818466598  40.3695211637108  6.5925565275452715  12.041804100110555  120.000000
6.145213483146067  0.000000  0.000000  0.000000  -22.941046576286322  3.0989871258397126  -13.104001049141516  53.942033704782716  11.60949724680954  8.707762380468694  6.761454844742189  36.62794421696034  8.64902089781685  11.989945378502112  120.000000
6.185378277153558  0.000000  0.000000  0.000000  -22.440461801290905  3.1449477060991287  -13.741946304646088  53.993474063047806  11.671935880875516  9.223080187473602  6.343185774279578  32.9421128884264  10.81914474386818  11.952287632402605  120.000000
6.225543071161049  0.000000  0.000000  0.000000  -22.0506719698461  3.270195365433913  -14.20290026458673  54.05992867236259  11.765002464797014  9.687580712971771  5.920147839774691  29.342591428899546  13.102671808974097  11.941634769926967  120.000000
6.265707865168539  0.000000  0.000000  0.000000  -21.774197207956334  3.4701774053780556  -14.4795481602365  54.145490979052305  11.892666878755195  10.093093021089208  5.490695905157662  25.855744488739564  15.497710329650419  11.97135888213033  120.000000
6.30587265917603  0.000000  0.000000  0.000000  -21.60958609244676  3.736113087127636  -14.568647844568238  54.254299393655664  12.057840230677934  10.433465470630924  5.053062133602785  22.502982337434794  17.99948450337011  12.054743724047919  120.000000
6.346037453183521  0.000000  0.000000  0.000000  -21.55074865881119  4.055188665471709  -14.471956639909662  54.390562349085705  12.261423939827624  10.705308675970638  4.605823960532873  19.300130076742256  20.599956787388912  12.203705521408867  120.000000
6.386202247191012  0.000000  0.000000  0.000000  -21.588624753769096  4.410148971599344  -14.19653972950458  54.55850863833817  12.50135582066143  10.907946308861515  4.1498289930092485  16.257470052875334  23.28529431856159  12.42773943139122  120.000000
6.426367041198501  0.000000  0.000000  0.000000  -21.71093938815576  4.779960161017037  -13.755058565113746  54.759005518087406  12.771456001609073  11.044390542964516  3.678482938577491  13.378874645561147  26.044830624641186  12.732037476291211  120.000000
6.466531835205992  0.000000  0.000000  0.000000  -21.903919313733883  5.142394900330706  -13.166227354505304  54.98855642970259  13.062354245285697  11.119638985290733  3.162664410281018  10.662856215874275  28.88522598192909  13.116020096465977  120.000000
6.506696629213483  0.000000  0.000000  0.000000  -22.15247424126399  5.477839301852417  -12.455277509310175  55.24345204110597  13.362715988488308  11.136632729418677  2.5249572490629886  8.105335554089985  31.855081197126715  13.572406395734335  120.000000
6.546861423220974  0.000000  0.000000  0.000000  -22.44024225031454  5.771777452088618  -11.653146567451723  55.51874454692162  13.658575717571722  11.096858227968081  1.535052284571905  5.700742444173457  35.15061182169928  14.086283836059355  120.000000
6.587026217228464  0.000000  0.000000  0.000000  -22.75540737102144  6.014315952240083  -10.793748087646387  55.80492379086155  13.93448298864647  11.001863657603765  -0.646048070816091  3.4447388239430876  39.57242754874206  14.635386867941008  120.000000
